<?xml version="1.0" encoding="utf-8"?>
<!-- Generator: Adobe Illustrator 18.1.1, SVG Export Plug-In . SVG Version: 6.00 Build 0)  -->
<svg version="1.1" id="Layer_1" xmlns="http://www.w3.org/2000/svg" xmlns:xlink="http://www.w3.org/1999/xlink" x="0px" y="0px"
	 viewBox="0 0 640 640" enable-background="new 0 0 640 640" xml:space="preserve">
<g>
	<g>
		<g>
			<path fill="#FFFFFF" d="M295.5,402c3.8-4.6,6.8-9.9,9-15.1c0.5-1.3,1-2.6,1.5-3.9c0.4-1.3,0.8-2.6,1.2-3.9c0.4-1.3,0.7-2.6,1-3.9
				c0.3-1.3,0.5-2.5,0.7-3.8c0.3-1.3,0.3-2.5,0.5-3.7c0.1-1.2,0.3-2.4,0.4-3.6c0.1-2.4,0.2-4.7,0.2-6.9c0-2.2-0.2-4.4-0.3-6.5
				c-0.1-2.1-0.4-4.1-0.7-6c-0.3-1.9-0.6-3.7-0.9-5.4c-0.4-1.7-0.8-3.3-1.2-4.8c-0.4-1.5-0.8-2.9-1.2-4.2c-0.4-1.3-0.8-2.5-1.2-3.5
				c-0.8-2.1-1.5-3.8-2-4.9c-0.5-1.1-0.8-1.7-0.8-1.7s-0.3,0.6-0.9,1.7c-0.5,1.1-1.3,2.7-2.1,4.8c-0.4,1-0.9,2.2-1.4,3.4
				c-0.5,1.2-1,2.5-1.6,3.9c-0.6,1.4-1.1,2.9-1.6,4.4c-0.6,1.5-1.2,3.1-1.8,4.8c-0.6,1.7-1.2,3.4-1.9,5.1c-0.6,1.7-1.3,3.5-1.9,5.4
				c-0.7,1.8-1.4,3.6-2.1,5.5c-0.8,1.8-1.5,3.7-2.2,5.5c-0.4,0.9-0.8,1.8-1.2,2.7c-0.2,0.4-0.4,0.9-0.6,1.3
				c-0.2,0.4-0.4,0.9-0.6,1.3c-0.4,0.9-0.8,1.7-1.3,2.6c-0.4,0.8-0.9,1.6-1.3,2.5c-1.8,3.2-3.8,6.2-6,8.9c-2.2,2.8-4.9,5.5-8.1,8.8
				c-0.8,0.9-1.7,1.7-2.5,2.5c-0.9,0.9-1.8,1.9-2.6,2.8c-0.9,1.1-1.8,2.1-2.7,3.2c-0.4,0.6-0.9,1.2-1.3,1.7l-0.6,0.9l-0.6,0.9
				c-0.8,1.2-1.6,2.5-2.3,3.8c-0.3,0.7-0.7,1.3-1,2c-0.3,0.7-0.6,1.4-0.8,2c-0.3,0.7-0.5,1.3-0.8,2c-0.3,0.7-0.4,1.4-0.6,2
				c-0.4,1.3-0.8,2.7-0.9,3.9c-1,5.2-0.7,9.8-0.4,13.9c0.3,2,0.6,3.9,1,5.7c0.5,1.8,0.9,3.4,1.4,4.9c0.2,0.8,0.5,1.5,0.7,2.2
				c0.2,0.7,0.5,1.4,0.8,2c0.5,1.3,1,2.5,1.5,3.5c1,2,1.9,3.6,2.5,4.6c0.6,1.1,1,1.6,1,1.6s0.3-0.6,0.7-1.8c0.4-1.2,1-2.9,1.6-5
				c0.7-2.1,1.5-4.6,2.4-7.3c0.5-1.4,1-2.8,1.4-4.3c0.6-1.5,1.1-3,1.7-4.5c1.3-3,2.6-6.1,4.3-8.6c1.7-2.6,3.5-4.7,5.8-6.7
				c0.5-0.5,1.3-1,1.9-1.6c0.6-0.5,1.4-1.1,2.1-1.7c0.8-0.6,1.6-1.3,2.5-1.9c0.9-0.7,1.8-1.4,2.7-2.1
				C287.4,410.5,291.8,406.7,295.5,402z"/>
			<circle fill="#FFFFFF" cx="233.2" cy="325" r="32.9"/>
			<path fill="#FFFFFF" d="M391.9,416.6c-0.2-0.7-0.4-1.4-0.6-2c-0.3-0.7-0.5-1.3-0.8-2c-0.3-0.7-0.5-1.4-0.8-2
				c-0.3-0.7-0.7-1.3-1-2c-0.7-1.4-1.5-2.6-2.3-3.8l-0.6-0.9l-0.6-0.9c-0.4-0.6-0.9-1.2-1.3-1.7c-0.9-1.1-1.8-2.1-2.7-3.2
				c-0.9-0.9-1.8-1.9-2.6-2.8c-0.8-0.8-1.7-1.7-2.5-2.5c-3.2-3.2-5.9-6-8.1-8.8c-2.3-2.8-4.2-5.7-6-8.9c-0.4-0.8-0.9-1.6-1.3-2.5
				c-0.4-0.8-0.8-1.7-1.3-2.6c-0.2-0.4-0.4-0.9-0.6-1.3c-0.2-0.4-0.4-0.9-0.6-1.3c-0.4-0.9-0.8-1.8-1.2-2.7
				c-0.8-1.8-1.4-3.7-2.2-5.5c-0.7-1.8-1.4-3.7-2.1-5.5c-0.7-1.8-1.3-3.6-1.9-5.4c-0.7-1.7-1.3-3.5-1.9-5.1
				c-0.6-1.7-1.2-3.3-1.8-4.8c-0.5-1.6-1.1-3-1.6-4.4c-0.6-1.4-1-2.7-1.6-3.9c-0.5-1.2-0.9-2.4-1.4-3.4c-0.8-2-1.6-3.7-2.1-4.8
				c-0.5-1.1-0.9-1.7-0.9-1.7s-0.3,0.6-0.8,1.7c-0.5,1.1-1.2,2.8-2,4.9c-0.4,1.1-0.8,2.2-1.2,3.5c-0.4,1.3-0.8,2.7-1.2,4.2
				c-0.4,1.5-0.8,3.1-1.2,4.8c-0.3,1.7-0.6,3.5-0.9,5.4c-0.3,1.9-0.6,3.9-0.7,6c-0.1,2.1-0.3,4.2-0.3,6.5c0,2.2,0,4.5,0.2,6.9
				c0.1,1.2,0.2,2.4,0.4,3.6c0.2,1.2,0.2,2.5,0.5,3.7c0.2,1.3,0.5,2.5,0.7,3.8c0.2,1.3,0.6,2.6,1,3.9c0.4,1.3,0.7,2.6,1.2,3.9
				c0.5,1.3,1,2.6,1.5,3.9c2.2,5.2,5.2,10.5,9,15.1c3.7,4.6,8.1,8.5,11.9,11.5c0.9,0.7,1.8,1.4,2.7,2.1c0.8,0.6,1.6,1.3,2.5,1.9
				c0.7,0.6,1.5,1.1,2.1,1.7c0.6,0.5,1.4,1,1.9,1.6c2.3,2,4.2,4.1,5.8,6.7c1.7,2.5,3,5.7,4.3,8.6c0.5,1.6,1.1,3.1,1.7,4.5
				c0.5,1.5,0.9,2.9,1.4,4.3c0.9,2.8,1.6,5.2,2.4,7.3c0.6,2.1,1.2,3.8,1.6,5c0.4,1.2,0.7,1.8,0.7,1.8s0.4-0.6,1-1.6
				c0.6-1.1,1.5-2.6,2.5-4.6c0.5-1,0.9-2.2,1.5-3.5c0.3-0.6,0.5-1.3,0.8-2c0.3-0.7,0.5-1.4,0.7-2.2c0.5-1.5,0.9-3.2,1.4-4.9
				c0.4-1.8,0.7-3.7,1-5.7c0.4-4.1,0.6-8.7-0.4-13.9C392.7,419.2,392.3,417.9,391.9,416.6z"/>
			<path fill="#FFFFFF" d="M537.7,163.5c-18.7,0-36,5.9-49.9,15.9c-19.8-36.9-91.5-51.7-155.1-53.1c-41.6-0.9-82.3,3.7-114.6,13
				c-32.7,9.4-54.9,23.2-64.9,40.2c-13.9-10-31.2-16-50-16c-45.7,0-82.8,35.2-82.8,78.5c0,42,34.8,76.3,78.5,78.4c0,4,0,8,0.2,12
				c0.6,12.6,2.3,25.4,5.4,38.1c3,12.7,7.3,25.3,13,37.2c0.7,1.5,1.5,3,2.2,4.4c0.7,1.5,1.5,2.9,2.3,4.4c0.8,1.4,1.6,2.9,2.4,4.3
				c0.9,1.4,1.7,2.8,2.6,4.2c0.8,1.4,1.8,2.8,2.7,4.1c0.9,1.4,1.8,2.7,2.8,4c2,2.6,3.9,5.2,6,7.7c1.1,1.2,2,2.5,3.1,3.7
				c1.1,1.2,2.2,2.4,3.3,3.5c2.2,2.3,4.5,4.5,6.8,6.6c2.4,2.1,4.7,4.2,7.2,6c1.2,0.9,2.4,1.9,3.6,2.8c1.2,0.9,2.5,1.7,3.8,2.6
				c10,6.7,20.4,11.3,30.3,14.2c9.9,2.9,19.1,3.9,27,4.1c4,0,7.7-0.1,11.1-0.6c3.4-0.3,6.4-0.9,9.2-1.4c0.5-0.1,1-0.2,1.6-0.3
				c6.8,22.1,39.7,31,68.8,31.9c1.7,0.1,3.5,0.1,5.2,0.1c33.1,0,67.9-9.7,75.8-32c0.5,0.1,0.9,0.2,1.4,0.3c2.7,0.5,5.8,1.2,9.2,1.4
				c3.4,0.4,7.1,0.5,11.1,0.6c8-0.1,17.2-1.2,27-4.1c9.8-2.8,20.3-7.5,30.3-14.2c1.2-0.8,2.5-1.7,3.8-2.6c1.2-0.9,2.4-1.8,3.6-2.8
				c2.5-1.8,4.8-3.9,7.2-6c2.3-2.1,4.6-4.3,6.8-6.6c1.1-1.2,2.2-2.3,3.3-3.5c1.1-1.2,2.1-2.4,3.1-3.7c2.1-2.5,4.1-5.1,6-7.7
				c1-1.3,1.9-2.7,2.8-4c0.9-1.4,1.9-2.7,2.7-4.1c0.9-1.4,1.7-2.8,2.6-4.2c0.8-1.4,1.6-2.9,2.4-4.3c0.8-1.4,1.6-2.9,2.3-4.4
				c0.7-1.5,1.5-3,2.2-4.4c5.7-11.9,10-24.5,13-37.2c3-12.7,4.7-25.5,5.4-38.1c0.2-4,0.2-8,0.2-12c43.7-2.1,78.5-36.4,78.5-78.4
				C620.5,198.6,583.4,163.5,537.7,163.5z M480.3,311.5c-0.2,1.2-0.3,2.4-0.5,3.7c-0.2,1.2-0.4,2.4-0.6,3.7
				c-0.3,2.5-0.7,4.9-1.1,7.4c-1.7,9.8-3.5,19.6-5.8,29.1c-2.2,9.6-5,18.8-7.9,27.6c-3.1,8.8-6.4,17.2-10.3,24.9
				c-0.5,1-1,1.9-1.4,2.9c-0.5,0.9-1,1.9-1.5,2.8c-0.5,1-1,1.8-1.5,2.7c-0.5,0.9-1,1.8-1.5,2.7c-2.2,3.5-4.3,7-6.7,10.1
				c-4.6,6.5-9.7,12.3-15,17.4c-5.3,5.1-10.9,9.6-16.3,13.3c-1.4,0.9-2.7,1.8-4,2.7c-0.6,0.5-1.3,0.9-2,1.2
				c-0.7,0.4-1.3,0.8-1.9,1.2c-2.5,1.6-4.9,2.9-7.2,4.2c-4.5,2.4-8.2,4.4-10.8,5.7c-2.6,1.3-3.2,1.5-3.2,1.5
				c-4.2,13.4-33.4,23.1-66.3,22.1c-29.3-0.9-51.8-9.6-54.8-21.5c0,0-0.9-0.8-3.5-2.1c-2.6-1.3-6.3-3.3-10.8-5.7
				c-2.2-1.3-4.6-2.6-7.2-4.2c-0.6-0.4-1.3-0.8-1.9-1.2c-0.7-0.4-1.3-0.8-2-1.2c-1.3-0.9-2.6-1.8-4-2.7c-5.4-3.8-11-8.2-16.3-13.3
				c-5.3-5.1-10.4-10.9-15-17.4c-2.4-3.2-4.5-6.7-6.7-10.1c-0.5-0.9-1-1.8-1.5-2.7c-0.5-0.9-1.1-1.8-1.5-2.7c-0.5-0.9-1-1.9-1.5-2.8
				c-0.5-1-1-1.9-1.4-2.9c-3.9-7.7-7.2-16.1-10.3-24.9c-3-8.8-5.7-18.1-7.9-27.6c-2.3-9.5-4.1-19.3-5.8-29.1
				c-0.4-2.5-0.8-4.9-1.1-7.4c-0.2-1.2-0.4-2.4-0.6-3.7c-0.2-1.2-0.3-2.4-0.5-3.7c-0.5-3.9-1-7.8-1.4-11.7c-0.1-0.9-0.2-1.9-0.3-2.8
				c-1-9.6-1.7-19-2.2-28c-0.5-9-0.7-17.6-0.6-25.5c0.1-8,0.4-15.3,1.1-21.9c0.6-6.6,1.6-12.3,2.6-17.1c0.2-1.2,0.6-2.3,0.9-3.4
				c0.1-0.5,0.3-1.1,0.4-1.6c0.2-0.5,0.3-1,0.5-1.4c0.7-2.3,1-3,1.7-4.8c0.2-0.4,0.3-0.8,0.5-1.2l0,0l0,0c0.4-0.8,0.7-1.4,0.9-1.9
				c0.1-0.3,0.2-0.5,0.3-0.7c0.1-0.2,0.2-0.4,0.2-0.4c0,0,0,0,0,0c7-14.2,27.3-26.6,57.3-35.3c30.8-8.9,69.8-13.3,110-12.4
				c36.4,0.8,70.5,6,96.2,14.7c25.3,8.5,41.8,19.9,47.3,33c0,0.1,0.1,0.2,0.1,0.3c0,0,0,0.1,0,0.1c0.1,0.2,0.2,0.4,0.3,0.7
				c0.1,0.3,0.3,0.7,0.5,1.2c0.1,0.1,0.1,0.3,0.2,0.4l0,0c0.2,0.4,0.4,0.9,0.6,1.5c0.5,1.3,1.1,2.9,1.7,4.8c0.1,0.5,0.3,0.9,0.5,1.4
				c0.1,0.5,0.3,1,0.4,1.6c0.3,1.1,0.6,2.2,0.9,3.4c1.1,4.8,2,10.6,2.6,17.1c0.6,6.5,1,13.9,1.1,21.9c0.1,8-0.1,16.5-0.6,25.5
				c-0.4,9-1.2,18.4-2.2,28c-0.1,0.9-0.2,1.9-0.3,2.8C481.3,303.7,480.9,307.6,480.3,311.5z"/>
			<circle fill="#FFFFFF" cx="407.8" cy="325" r="32.9"/>
			<path fill="#FFFFFF" d="M357.1,462.4c-0.4,0.3-0.9,0.6-1.3,0.9c-0.2,0.2-0.5,0.3-0.8,0.5c-0.3,0.2-0.6,0.3-0.9,0.5
				c-0.6,0.3-1.2,0.7-2,1c-0.7,0.3-1.4,0.7-2.3,0.9c-0.4,0.1-0.8,0.3-1.2,0.5c-0.4,0.1-0.9,0.3-1.3,0.4c-0.5,0.1-0.9,0.3-1.4,0.4
				c-0.5,0.1-1,0.2-1.4,0.3c-0.9,0.3-2,0.4-3,0.6c-2.1,0.4-4.3,0.7-6.6,0.9c-2.3,0.3-4.7,0.4-7.2,0.6c-2.5,0.1-5,0.2-7.5,0.2
				c-2.5,0-5-0.1-7.5-0.2c-1.2-0.1-2.5-0.1-3.7-0.2c-0.6,0-1.2-0.1-1.8-0.1c-0.6-0.1-1.2-0.1-1.8-0.2c-1.2-0.1-2.3-0.3-3.4-0.4
				c-1.1-0.2-2.2-0.3-3.2-0.5c-0.5-0.1-1-0.2-1.6-0.3c-0.5-0.1-1-0.2-1.5-0.3c-0.5-0.1-1-0.2-1.4-0.3c-0.5-0.1-0.9-0.3-1.4-0.4
				c-0.9-0.2-1.7-0.6-2.5-0.8c-0.8-0.3-1.5-0.6-2.2-0.9c-0.6-0.3-1.4-0.7-1.9-1c-0.5-0.4-1.1-0.7-1.6-1c-0.5-0.4-0.9-0.7-1.2-1
				c-0.4-0.3-0.6-0.7-0.9-1c-0.5-0.5-0.7-0.8-0.7-0.8s0,0.4-0.1,1.1c0,0.4-0.1,0.8-0.1,1.3c0.1,0.5,0.2,1.2,0.3,1.9
				c0.3,1.4,1,3,2,4.8c0.2,0.5,0.6,0.8,0.9,1.3c0.3,0.4,0.6,0.9,1,1.3c0.4,0.4,0.8,0.8,1.2,1.2c0.4,0.4,0.8,0.9,1.3,1.3
				c0.9,0.8,1.9,1.6,2.9,2.3c1,0.8,2.2,1.5,3.4,2.1c0.6,0.4,1.2,0.6,1.8,1c0.6,0.3,1.3,0.6,1.9,0.9c0.6,0.3,1.3,0.5,2,0.8
				c0.7,0.3,1.3,0.5,2,0.7c2.8,0.9,5.7,1.6,8.6,2.1c3,0.4,6,0.7,9.1,0.7c3.1,0,6.1-0.3,9.1-0.7c3-0.5,5.9-1.2,8.7-2.1
				c2.8-0.9,5.4-2.1,7.7-3.5c2.4-1.4,4.5-2.9,6.2-4.6c0.4-0.4,0.9-0.8,1.3-1.2c0.4-0.4,0.8-0.9,1.1-1.3c0.7-0.8,1.3-1.7,1.8-2.5
				c0.5-0.8,0.9-1.7,1.3-2.4c0.2-0.4,0.3-0.7,0.5-1.1c0.1-0.4,0.2-0.7,0.3-1.1c0.2-0.7,0.4-1.2,0.4-1.8c0.1-0.5,0.1-1,0.1-1.3
				c0-0.7,0-1.1,0-1.1s-0.3,0.2-0.9,0.7C357.8,461.8,357.5,462,357.1,462.4z"/>
		</g>
	</g>
	<path fill="#222222" d="M477.1,191.8"/>
	<path fill="#FFFFFF" d="M475.9,189.2"/>
</g>
<g>
</g>
<g>
</g>
<g>
</g>
<g>
</g>
<g>
</g>
</svg>
