<?xml version="1.0" encoding="utf-8"?>
<!-- Generator: Adobe Illustrator 19.2.1, SVG Export Plug-In . SVG Version: 6.00 Build 0)  -->
<svg version="1.1" id="Layer_1" xmlns="http://www.w3.org/2000/svg" xmlns:xlink="http://www.w3.org/1999/xlink" x="0px" y="0px"
	 viewBox="0 0 1728 2592" style="enable-background:new 0 0 1728 2592;" xml:space="preserve">
<style type="text/css">
	.st0{fill:none;stroke:#000000;stroke-width:1.283000e-003;stroke-miterlimit:10;}
	.st1{fill:#FFFFFF;stroke:#000000;stroke-width:1.000000e-003;stroke-miterlimit:10;}
	.st2{fill:none;stroke:#000000;stroke-width:1.000000e-003;stroke-miterlimit:10;}
</style>
<g>
	<line class="st0" x1="0" y1="0" x2="1728" y2="0"/>
	<line class="st0" x1="0" y1="1296" x2="1728" y2="1296"/>
	<g>
		<g>
			<circle class="st1" cx="77.1" cy="408.3" r="5.1"/>
			<circle class="st1" cx="125.3" cy="408.3" r="5.1"/>
		</g>
		<g>
			<circle class="st1" cx="1602.7" cy="408.3" r="5.1"/>
			<circle class="st1" cx="1650.9" cy="408.3" r="5.1"/>
		</g>
	</g>
	<g>
		<g>
			<circle class="st1" cx="77.1" cy="850.4" r="5.1"/>
			<circle class="st1" cx="125.3" cy="850.4" r="5.1"/>
		</g>
		<g>
			<circle class="st1" cx="1602.7" cy="850.4" r="5.1"/>
			<circle class="st1" cx="1650.9" cy="850.4" r="5.1"/>
		</g>
	</g>
	<g>
		<circle class="st1" cx="150.8" cy="150.8" r="6.8"/>
		<circle class="st1" cx="1577.3" cy="150.8" r="6.8"/>
	</g>
	<g>
		<circle class="st1" cx="150.8" cy="1145.3" r="6.8"/>
		<circle class="st1" cx="1577.3" cy="1145.3" r="6.8"/>
	</g>
</g>
<path class="st1" d="M468,1633.9H324v-288h97v61.1c0,9.9,8.1,18,18,18h29V1633.9z"/>
<rect x="548" y="1345.9" class="st1" width="144" height="288"/>
<path class="st1" d="M1251.6,1698.7h-172.8c-9.9,0-18-8.1-18-18v-334.8h208.8v334.8C1269.6,1690.6,1261.5,1698.7,1251.6,1698.7z"/>
<rect x="772" y="1345.9" class="st1" width="208.8" height="288"/>
<circle class="st1" cx="454.3" cy="1923.3" r="5.1"/>
<circle class="st1" cx="730.8" cy="1923.3" r="5.1"/>
<circle class="st1" cx="1006.8" cy="1923.3" r="5.1"/>
<circle class="st1" cx="1254.3" cy="1923.3" r="5.1"/>
<path class="st2" d="M1386,1741.9H342c-9.9,0-18,8.1-18,18v122.4c0,9.9,8.1,18,18,18h61.2v57.6h71.9v-21.6h108v21.6H1080v-21.6h108
	v21.6h108v-57.6h90c9.9,0,18-8.1,18-18v-122.4C1404,1749.9,1395.9,1741.9,1386,1741.9z"/>
</svg>
